<svg id="Capa_1" enable-background="new 0 0 439.979 439.979" height="512" viewBox="0 0 439.979 439.979" width="512" xmlns="http://www.w3.org/2000/svg"><g><path d="m221.373 165.006c-.112 12.711-10.506 22.924-23.217 22.812-5.414-.048-10.637-2.002-14.752-5.52v74.415l-183.404.258v-175.198c0-4.796 3.888-8.684 8.684-8.684h.005 174.715v74.63c9.662-8.259 24.19-7.122 32.449 2.54 3.517 4.114 5.472 9.335 5.52 14.747z" fill="#f6c863"/><path d="m183.404 256.713v183.19h-174.715c-4.799 0-8.689-3.89-8.689-8.689v-174.286l74.935-.086c-8.405-9.381-7.613-23.8 1.768-32.204s23.8-7.613 32.204 1.768c7.745 8.645 7.762 21.729.038 30.393z" fill="#69b0ee"/><path d="m366.293 256.713v174.501c0 4.799-3.89 8.689-8.689 8.689h-174.286v-75.091c-9.309 8.489-23.737 7.825-32.226-1.484s-7.825-23.737 1.484-32.226c8.709-7.942 22.033-7.942 30.742 0v-74.388h75.289c-6.022 4.237-9.604 11.141-9.601 18.505.194 12.704 10.649 22.845 23.353 22.651 12.431-.19 22.462-10.221 22.651-22.651-.005-7.374-3.609-14.282-9.655-18.505h80.938z" fill="#ef5261"/><path d="m210.963 51.957 166.734-51.491c4.584-1.417 9.449 1.15 10.867 5.734l51.416 166.53-71.723 22.157c10.86 6.379 14.493 20.355 8.114 31.216s-20.355 14.493-31.216 8.114c-10.17-5.974-14.107-18.716-9.08-29.385l-71.133 21.953-22.211-71.932c5.827 4.503 13.48 5.89 20.516 3.717 12.145-3.747 18.953-16.631 15.206-28.776s-16.631-18.953-28.776-15.206c-7.044 2.179-12.583 7.656-14.841 14.675z" fill="#2cbfae"/></g></svg>